<svg width="664.271" height="664.271" viewBox="0 0 175.755 175.755" xml:space="preserve" xmlns="http://www.w3.org/2000/svg"><path style="fill:#4ea8f1" d="M35.044 438.428a115.59 115.59 0 0 0-2.381-.402c-6.466-1.047-13.597-4.945-18.262-9.983-12.046-13.01-11.77-33.164.627-45.662 5.418-5.462 12.127-8.754 19.745-9.688 3.053-.374 68.663-.377 71.647-.002 5.532.694 11.564 3.083 15.804 6.26 12.902 9.666 17.067 27.033 9.913 41.325-4.377 8.743-11.813 14.695-21.749 17.41l-2.716.741-36.115.042c-19.864.023-36.295.005-36.513-.04zm18.525-10.974c2.936-1.676 2.771-1.63 4.142-1.164.952.323 1.37.355 1.726.132.26-.161.651-.294.871-.294.22 0 .4-.095.4-.211 0-.533-.748-.847-2.02-.847-.761 0-1.68-.112-2.04-.25-.858-.325-1.137-1.204-.565-1.776.632-.632.922-1.546.922-2.908 0-.657.091-1.156.203-1.107l2.611 1.104c2.037.859 2.534 1.193 3.22 2.167 1.117 1.584 2.086 2.049 3.688 1.77.9-.158 1.514-.116 2.155.145.976.396 2.146.247 2.145-.274 0-.18-.416-.659-.926-1.065-.509-.406-.926-.923-.926-1.147 0-.225-.642-1.046-1.426-1.824-1.142-1.133-1.541-1.77-1.998-3.184-.812-2.513-3.506-7.777-5.406-10.564-1.033-1.516-3.448-4.252-6.664-7.55-5.01-5.14-5.054-5.195-6.71-8.443-1.909-3.744-3.18-5.27-5.219-6.267-1.69-.827-4.402-1.113-6.126-.647-1.335.361-3.06 1.956-3.341 3.087-.105.42-.656 1.215-1.226 1.764-1.457 1.406-1.922 2.433-1.947 4.305-.015 1.168.118 1.81.495 2.38l.516.783.17-.817c.287-1.385.437-1.465 1.601-.859.857.447 1.338.523 2.469.39l1.404-.165.668 1.52c.922 2.098 1.135 2.861 1.922 6.881 1.214 6.196 2.22 8.29 5.597 11.638l2.203 2.184.005 1.785c.004 1.203.177 2.161.53 2.938.679 1.497.661 1.742-.174 2.4-.804.632-1.447.672-3.6.228-1.212-.25-1.661-.25-2.062 0-.282.176-.746.32-1.03.32-.286 0-.701.26-.924.58-.497.708-.376.88.347.494.443-.238.646-.192 1.08.243.295.294.536.739.536.988 0 .415.036.418.421.033.342-.342.567-.367 1.188-.133.652.247.983.183 2.23-.429 1.44-.706 2.563-.884 3.443-.547.356.137.28.24-.375.517-.982.413-1.151 1.012-.182.643.415-.157.916-.139 1.424.053.653.247 1.007.2 2.121-.28 1.516-.651 2.233-.761 1.593-.244-.475.384-1.28 1.545-1.28 1.845 0 .387 1.199.206 2.121-.32zm-2.521-2.917c-.313-.345-.814-.525-1.464-.525-.658 0-1.043-.14-1.15-.419-.223-.581-.235-.564.497-.747.842-.211 1.343-.988 1.813-2.806l.375-1.452.735 1.541c.403.848 1.073 1.88 1.487 2.295.908.908.952 1.451.158 1.947-1.089.68-1.935.737-2.451.166zm38.84.673c.986-.21 2.415-.711 3.174-1.116 1.937-1.031 8.566-7.685 9.573-9.607.675-1.29.96-1.552 2.507-2.301 1.436-.696 2.44-1.55 5.645-4.8 4.268-4.327 5.024-5.504 5.564-8.657 1.268-7.399-5.605-14.3-13.046-13.102-3.179.512-4.73 1.512-9.006 5.81-2.756 2.77-4.026 4.251-4.476 5.22-.5 1.075-.823 1.42-1.576 1.687-1.635.579-4.017 2.475-7.068 5.625-2.307 2.382-3.159 3.474-3.93 5.035-2.93 5.928-.33 12.845 5.858 15.582 2.226.985 4.214 1.168 6.78.624zm-4.046-4.87c-2.95-.967-4.76-3.304-4.76-6.145 0-2.624.366-3.268 3.935-6.918 1.814-1.855 3.384-3.374 3.489-3.374.104 0 .264.387.354.86.283 1.482 1.355 3.452 2.674 4.913 1.28 1.418 3.577 2.952 4.427 2.956.623.003 1.703-1.733 1.918-3.085l.176-1.104-1.455-.93c-2.56-1.638-3.632-4.513-2.804-7.517.293-1.06.878-1.795 3.804-4.783 1.902-1.942 3.934-3.784 4.516-4.093 1.487-.79 4.34-.785 5.846.01 2.38 1.256 3.72 3.734 3.476 6.425-.201 2.22-.984 3.399-4.476 6.745l-2.985 2.86-.302-1.042c-.888-3.068-3.26-6.003-5.925-7.33l-1.455-.724-.59.736c-.326.404-.736 1.38-.912 2.168-.31 1.384-.3 1.446.312 1.853 1.62 1.08 3.344 3.106 3.69 4.338.428 1.53.235 3.483-.482 4.862-.65 1.252-6.716 7.275-7.948 7.892-1.027.515-3.534.752-4.523.428z" transform="translate(17.298 -317.567)"/></svg>